<svg xmlns="http://www.w3.org/2000/svg" width="28" height="20" viewBox="0 0 28 20">
  <defs>
    <style>
      .cls-1 {
        fill: #ff4b55;
      }

      .cls-2 {
        fill: #f5f5f5;
      }
    </style>
  </defs>
  <g id="hong-kong" transform="translate(0 -88.276)">
    <path id="Path_51" data-name="Path 51" class="cls-1" d="M25.9,108.276H2.1A2.2,2.2,0,0,1,0,105.99V90.562a2.2,2.2,0,0,1,2.1-2.286H25.9A2.2,2.2,0,0,1,28,90.562V105.99A2.2,2.2,0,0,1,25.9,108.276Z"/>
    <g id="Group_105" data-name="Group 105" transform="translate(8.216 92.482)">
      <path id="Path_52" data-name="Path 52" class="cls-2" d="M154.513,203.345a2.44,2.44,0,0,1-1.895-.85.11.11,0,0,1,.011-.157h0a.11.11,0,0,1,.153.012,2.4,2.4,0,0,0,2.725.586,1.375,1.375,0,0,1-.767-.141c-.845-.555-.462-1.146-1.023-1.86a1.612,1.612,0,0,0-1.849-.572.925.925,0,0,1-1.109-.773.06.06,0,0,0-.114-.006c-.975,2.633,1.956,5.892,4.965,3.549A3.311,3.311,0,0,1,154.513,203.345Zm-2.2-.894a.052.052,0,0,1-.1,0l-.112-.37-.386-.014a.052.052,0,0,1-.028-.095l.317-.221-.106-.372a.052.052,0,0,1,.081-.056l.308.233.32-.216a.052.052,0,0,1,.078.06l-.127.365.3.238a.052.052,0,0,1-.033.093l-.386-.008Z" transform="translate(-150.457 -196.843)"/>
      <path id="Path_53" data-name="Path 53" class="cls-2" d="M250.909,208.791a2.44,2.44,0,0,1,2.026-.456.11.11,0,0,1,.085.133h0a.11.11,0,0,1-.13.083,2.4,2.4,0,0,0-2.532,1.166,1.375,1.375,0,0,1,.7-.347c1.009-.062,1.057.64,1.934.875s1.263-.081,1.823-.651a.924.924,0,0,1,1.351-.046.06.06,0,0,0,.094-.064c-.8-2.692-5.1-3.541-6.1.138A3.311,3.311,0,0,1,250.909,208.791Zm2.293-.6a.052.052,0,0,1,.081-.057l.312.229.317-.221a.052.052,0,0,1,.079.059l-.121.367.308.233a.052.052,0,0,1-.032.094l-.387,0-.127.365a.052.052,0,0,1-.1,0l-.118-.368-.386-.008a.052.052,0,0,1-.029-.094l.314-.226Z" transform="translate(-244.695 -204.038)"/>
      <path id="Path_54" data-name="Path 54" class="cls-2" d="M214.761,155.268a2.44,2.44,0,0,1,.065-2.076.11.11,0,0,1,.15-.049h0a.111.111,0,0,1,.048.146,2.4,2.4,0,0,0,.5,2.743,1.375,1.375,0,0,1-.162-.763c.192-.992.884-.863,1.331-1.654a1.612,1.612,0,0,0-.174-1.928.924.924,0,0,1,.293-1.319.06.06,0,0,0-.038-.107c-2.806.1-4.7,4.051-1.393,5.942A3.311,3.311,0,0,1,214.761,155.268Zm-.009-2.37a.052.052,0,0,1-.035-.092l.3-.245-.134-.362a.052.052,0,0,1,.077-.062l.325.209.3-.24a.052.052,0,0,1,.083.054l-.1.374.322.214a.052.052,0,0,1-.026.1l-.386.022-.1.372a.052.052,0,0,1-.1,0l-.14-.36Z" transform="translate(-210.162 -150.261)"/>
      <path id="Path_55" data-name="Path 55" class="cls-2" d="M256.155,256.955a2.44,2.44,0,0,1,1.069,1.78.11.11,0,0,1-.1.123h0a.11.11,0,0,1-.119-.1,2.4,2.4,0,0,0-1.9-2.038,1.376,1.376,0,0,1,.549.554c.376.938-.275,1.2-.223,2.111s.474,1.173,1.19,1.526a.925.925,0,0,1,.468,1.268.06.06,0,0,0,.09.07c2.3-1.6,1.761-5.953-2.047-5.749A3.308,3.308,0,0,1,256.155,256.955Zm1.291,1.988a.052.052,0,0,1,.079.059l-.119.368.309.232a.052.052,0,0,1-.031.094H257.3l-.125.366a.052.052,0,0,1-.1,0l-.12-.368-.386-.006a.052.052,0,0,1-.03-.094l.313-.227-.114-.369a.052.052,0,0,1,.08-.057l.313.227Z" transform="translate(-249.369 -250.674)"/>
      <path id="Path_56" data-name="Path 56" class="cls-2" d="M169.221,265.62a2.44,2.44,0,0,1-1.371,1.56.11.11,0,0,1-.147-.057h0a.111.111,0,0,1,.056-.143,2.4,2.4,0,0,0,1.362-2.432,1.375,1.375,0,0,1-.36.691c-.779.644-1.231.1-2.079.43s-.973.808-1.092,1.6a.924.924,0,0,1-1.066.832.06.06,0,0,0-.039.107c2.229,1.707,6.206-.134,4.854-3.7A3.305,3.305,0,0,1,169.221,265.62Zm-1.5,1.835a.052.052,0,0,1-.032.094l-.386,0-.127.365a.052.052,0,0,1-.1,0l-.118-.368-.386-.008a.052.052,0,0,1-.029-.094l.314-.226-.112-.37a.052.052,0,0,1,.081-.057l.312.229.317-.221a.052.052,0,0,1,.079.059l-.121.367Z" transform="translate(-163.696 -258.247)"/>
    </g>
  </g>
</svg>
